<?xml version="1.0" encoding="utf-8"?>
<!-- Generator: Adobe Illustrator 20.1.0, SVG Export Plug-In . SVG Version: 6.00 Build 0)  -->
<svg version="1.1" id="Warstwa_1" xmlns="http://www.w3.org/2000/svg" xmlns:xlink="http://www.w3.org/1999/xlink" x="0px" y="0px"
	 viewBox="0 0 37.9 37.9" style="enable-background:new 0 0 37.9 37.9;" xml:space="preserve">
<style type="text/css">
	.st0{fill:#FFFFFF;}
</style>
<g>
	<path class="st0" d="M1,37.9c-0.3,0-0.5-0.1-0.7-0.3c-0.4-0.4-0.4-1,0-1.4L36.2,0.3c0.4-0.4,1-0.4,1.4,0s0.4,1,0,1.4L1.7,37.6
		C1.5,37.8,1.3,37.9,1,37.9z"/>
</g>
<g>
	<path class="st0" d="M36.9,37.9c-0.3,0-0.5-0.1-0.7-0.3L0.3,1.7c-0.4-0.4-0.4-1,0-1.4s1-0.4,1.4,0l35.9,35.9c0.4,0.4,0.4,1,0,1.4
		C37.4,37.8,37.1,37.9,36.9,37.9z"/>
</g>
</svg>
