<?xml version="1.0" encoding="utf-8"?>
<!-- Generator: Adobe Illustrator 20.1.0, SVG Export Plug-In . SVG Version: 6.00 Build 0)  -->
<svg version="1.1" id="Layer_1" xmlns="http://www.w3.org/2000/svg" xmlns:xlink="http://www.w3.org/1999/xlink" x="0px" y="0px"
	 viewBox="0 0 149.9 61.7" style="enable-background:new 0 0 149.9 61.7;" xml:space="preserve">
<style type="text/css">
	.st0{clip-path:url(#SVGID_2_);fill:#FFFFFF;}
	.st1{clip-path:url(#SVGID_4_);fill:#FFFFFF;}
	.st2{clip-path:url(#SVGID_6_);fill:#FFFFFF;}
	.st3{clip-path:url(#SVGID_8_);fill:#FFFFFF;}
	.st4{clip-path:url(#SVGID_10_);fill:#FFFFFF;}
	.st5{clip-path:url(#SVGID_12_);fill:#FFFFFF;}
	.st6{clip-path:url(#SVGID_14_);fill:#FFFFFF;}
	.st7{clip-path:url(#SVGID_16_);fill:#FFFFFF;}
</style>
<g>
	<g>
		<defs>
			<rect id="SVGID_1_" width="149.9" height="61.7"/>
		</defs>
		<clipPath id="SVGID_2_">
			<use xlink:href="#SVGID_1_"  style="overflow:visible;"/>
		</clipPath>
		<path class="st0" d="M148.2,60.2L148.2,60.2v-1.1l0,0c0.4,0,0.7,0.2,0.7,0.6C148.9,60,148.6,60.2,148.2,60.2 M148.2,58.5h-0.8v3.2
			h0.8v-0.8l0,0c0.9,0,1.5-0.5,1.5-1.2S149.1,58.5,148.2,58.5 M143.8,58.5v1.8c0,0.4-0.2,0.7-0.6,0.7c-0.4,0-0.6-0.2-0.6-0.7v-1.8
			h-0.8v1.8c0,0.9,0.5,1.4,1.4,1.4c0.8,0,1.4-0.5,1.4-1.4v-1.8H143.8z M137.5,61c-0.5,0-0.9-0.4-0.9-0.9s0.4-0.9,0.9-0.9
			s0.9,0.4,0.9,0.9S138,61,137.5,61 M137.5,58.5c-1,0-1.7,0.7-1.7,1.6c0,0.9,0.7,1.6,1.7,1.6s1.7-0.7,1.7-1.6S138.5,58.5,137.5,58.5
			 M132,59.1c0.4,0,0.5,0.2,0.5,0.5s-0.2,0.5-0.5,0.5h-0.1L132,59.1L132,59.1z M132.6,61.7h0.9l-0.9-1.2c0.4-0.2,0.6-0.5,0.6-0.9
			c0-0.7-0.6-1.1-1.3-1.1h-0.8v3.2h0.8v-1.1l0,0L132.6,61.7z M127.1,60.6h0.6V61c-0.1,0-0.3,0.1-0.4,0.1c-0.6,0-1-0.4-1-0.9
			s0.4-0.9,1-0.9c0.3,0,0.6,0.1,0.8,0.3l0.4-0.6c-0.3-0.2-0.7-0.4-1.1-0.4c-1,0-1.8,0.7-1.8,1.6c0,0.9,0.8,1.6,1.8,1.6
			c0.5,0,0.9-0.1,1.1-0.4V60h-1.3L127.1,60.6L127.1,60.6z M118.7,60.6h0.6V61c-0.1,0-0.3,0.1-0.4,0.1c-0.5,0-1-0.4-1-0.9
			s0.4-0.9,1-0.9c0.3,0,0.6,0.1,0.8,0.3l0.4-0.6c-0.3-0.2-0.7-0.4-1.1-0.4c-1,0-1.8,0.7-1.8,1.6c0,0.9,0.8,1.6,1.8,1.6
			c0.5,0,0.9-0.1,1.1-0.4V60h-1.3L118.7,60.6L118.7,60.6z M113.7,58.5v2.1l-1.5-2.1h-0.7v3.2h0.7v-2l1.5,2h0.7v-3.2H113.7z
			 M107.9,61.7h0.8v-3.2h-0.8V61.7z M105.4,58.5h-2.6v0.7h0.9v2.5h0.8v-2.5h0.9C105.4,59.2,105.4,58.5,105.4,58.5z M99.2,61v-0.6h1
			v-0.6h-1v-0.6h1.1v-0.7h-1.9v3.2h1.9V61H99.2z M96,61.7l-1.3-1.6l1.2-1.6H95l-1,1.4v-1.4h-0.8v3.2H94v-1.4l1.1,1.4
			C95.1,61.7,96,61.7,96,61.7z M89.1,59.1c0.4,0,0.5,0.2,0.5,0.5s-0.2,0.5-0.5,0.5H89L89.1,59.1L89.1,59.1z M89.8,61.7h0.9l-0.9-1.2
			c0.4-0.2,0.6-0.5,0.6-0.9c0-0.7-0.6-1.1-1.3-1.1h-0.8v3.2H89v-1.1l0,0L89.8,61.7z M83.7,60.4l0.4-1.1l0.4,1.1H83.7z M84.9,61.7
			h0.8l-1.2-3.2h-0.8l-1.2,3.2h0.8l0.2-0.6h1.2L84.9,61.7z M80.1,61.7l-0.4-3.2h-0.8l-0.6,2l-0.6-2h-0.8l-0.4,3.2h0.8l0.2-1.9
			l0.6,1.9h0.6l0.6-1.9l0.2,2L80.1,61.7L80.1,61.7z M69.7,59.4c0-0.1,0.1-0.2,0.3-0.2c0.3,0,0.5,0.1,0.6,0.2l0.3-0.6
			c-0.3-0.2-0.6-0.3-0.9-0.3c-0.6,0-1,0.4-1,0.9c0,1,1.2,0.9,1.2,1.4c0,0.2-0.1,0.3-0.3,0.3c-0.3,0-0.5-0.2-0.7-0.4l-0.3,0.6
			c0.2,0.2,0.6,0.4,1,0.4c0.6,0,1.1-0.4,1.1-0.9C71,59.7,69.7,59.8,69.7,59.4 M65.5,58.5v2.1L64,58.5h-0.7v3.2H64v-2l1.5,2h0.7v-3.2
			H65.5z M58.9,61c-0.5,0-0.9-0.4-0.9-0.9s0.4-0.9,0.9-0.9s0.9,0.4,0.9,0.9C59.8,60.6,59.4,61,58.9,61 M58.9,58.5
			c-1,0-1.7,0.7-1.7,1.6c0,0.9,0.7,1.6,1.7,1.6s1.7-0.7,1.7-1.6C60.6,59.2,59.9,58.5,58.9,58.5 M53.8,61.7h0.8v-3.2h-0.8V61.7z
			 M51.3,58.5h-2.6v0.7h0.9v2.5h0.8v-2.5h0.9C51.3,59.2,51.3,58.5,51.3,58.5z M44.7,60.4l0.4-1.1l0.4,1.1H44.7z M45.9,61.7h0.8
			l-1.2-3.2h-0.8l-1.2,3.2h0.8l0.2-0.6h1.2L45.9,61.7z M41.2,61.4l-0.3-0.6c-0.2,0.2-0.5,0.3-0.7,0.3c-0.5,0-1-0.4-1-0.9
			s0.4-0.9,0.9-0.9c0.3,0,0.5,0.1,0.7,0.3l0.3-0.6c-0.3-0.2-0.7-0.4-1.1-0.4c-1,0-1.7,0.7-1.7,1.6c0,0.9,0.8,1.6,1.7,1.6
			C40.5,61.7,40.9,61.6,41.2,61.4 M34.9,61.7h0.8v-3.2h-0.8V61.7z M31.3,58.5v2.1l-1.5-2.1h-0.7v3.2h0.7v-2l1.5,2H32v-3.2H31.3z
			 M25.5,58.5v1.8c0,0.4-0.2,0.7-0.6,0.7s-0.6-0.2-0.6-0.7v-1.8h-0.8v1.8c0,0.9,0.5,1.4,1.4,1.4c0.8,0,1.4-0.5,1.4-1.4v-1.8H25.5z
			 M21,61.7l-0.4-3.2h-0.8l-0.6,2l-0.6-2h-0.8l-0.4,3.2H18l0.2-1.9l0.6,1.9h0.6l0.6-1.9l0.2,2L21,61.7L21,61.7z M14.7,61.7l-0.4-3.2
			h-0.8l-0.6,2l-0.6-2h-0.8L11,61.7h0.8l0.2-1.9l0.6,1.9h0.6l0.6-1.9l0.2,2L14.7,61.7L14.7,61.7z M6.9,61C6.4,61,6,60.6,6,60.1
			s0.4-0.9,0.9-0.9s0.9,0.4,0.9,0.9S7.4,61,6.9,61 M6.9,58.5c-1,0-1.7,0.7-1.7,1.6c0,0.9,0.7,1.6,1.7,1.6s1.7-0.7,1.7-1.6
			C8.6,59.2,7.8,58.5,6.9,58.5 M2.8,61.4l-0.3-0.6C2.3,60.9,2.1,61,1.8,61c-0.5,0-1-0.4-1-0.9s0.4-0.9,0.9-0.9
			c0.3,0,0.5,0.1,0.7,0.3l0.3-0.6c-0.3-0.2-0.7-0.4-1.1-0.4c-1,0-1.7,0.7-1.7,1.6c0,0.9,0.8,1.6,1.7,1.6C2.2,61.7,2.6,61.6,2.8,61.4
			"/>
	</g>
	<g>
		<defs>
			<rect id="SVGID_3_" width="149.9" height="61.7"/>
		</defs>
		<clipPath id="SVGID_4_">
			<use xlink:href="#SVGID_3_"  style="overflow:visible;"/>
		</clipPath>
		<path class="st1" d="M26.3,15.5l-7.1-1.3c-5-0.7-7.4-3.7-7.4-7.2c0-3.4,2.2-6.3,7.2-6.3c-10.7,0-19,6.6-19,15
			c0,9.6,7,15.7,18.3,17.8l5.8,1.1c6,1,8.7,4.4,8.7,8.5c0,3.3-2.5,6.6-7.1,6.6c11.2,0,19.2-6.4,19.2-16.4C44.9,23.1,37,17,26.3,15.5
			"/>
	</g>
	<g>
		<defs>
			<rect id="SVGID_5_" width="149.9" height="61.7"/>
		</defs>
		<clipPath id="SVGID_6_">
			<use xlink:href="#SVGID_5_"  style="overflow:visible;"/>
		</clipPath>
		<path class="st2" d="M42,19.1V0.7H21.4C32.4,0.7,42,7.7,42,19.1"/>
	</g>
	<g>
		<defs>
			<rect id="SVGID_7_" width="149.9" height="61.7"/>
		</defs>
		<clipPath id="SVGID_8_">
			<use xlink:href="#SVGID_7_"  style="overflow:visible;"/>
		</clipPath>
		<path class="st3" d="M0,25.3v24.3h24.1C10.9,49.6,0,39.9,0,25.3"/>
	</g>
	<g>
		<defs>
			<rect id="SVGID_9_" width="149.9" height="61.7"/>
		</defs>
		<clipPath id="SVGID_10_">
			<use xlink:href="#SVGID_9_"  style="overflow:visible;"/>
		</clipPath>
		<path class="st4" d="M93.4,38.8c-1.2,1.7-2.7,3.3-4.4,4.6c0-0.4,0.1-0.7,0.1-0.7C90.7,41.5,92.1,40.2,93.4,38.8 M94.6,36.8
			c-1.5,2-3.3,3.8-5.5,5.3c-0.1-1.3-0.3-2.8-0.9-4.5c2.4-1.8,4.6-3.8,6.5-6C95,33.7,95,35.3,94.6,36.8 M95.2,33
			c-0.1-0.7-0.1-1.3-0.2-1.7c1.3-1.6,2.3-3.2,2.8-4.7c-0.2,3.4-1.1,6.5-2.6,9.4C95.3,35.1,95.3,34.1,95.2,33 M97.8,23.6
			c-0.4-1.8-1.1-3.5-2.2-5.2c0.3-1,0.4-1.8,0.3-2.6c0.9,2.2,1.6,4.5,1.8,7C97.8,23.1,97.8,23.4,97.8,23.6 M95.3,18
			c-1.4-2.1-3.2-3.9-5.4-5.5c0.6-1.7,0.6-3.2,0.2-4.5c0.7,0.5,1.3,1.1,1.9,1.7c1.3,1.5,2.4,3.1,3.3,4.9C95.6,15.6,95.6,16.7,95.3,18
			 M89.5,12.3c-2-1.4-4.4-2.6-7.2-3.6c0.6-1.3,0.8-2.6,0.5-3.7c2.4,0.5,4.6,1.4,6.7,2.7C90.1,8.9,90.1,10.5,89.5,12.3 M89.1,6.9
			c-1.8-1.1-4-1.9-6.4-2.4c0-0.2-0.2-0.5-0.3-0.7c-0.3-0.4-0.5-0.6-0.8-0.9C84.4,3.8,86.9,5.1,89.1,6.9L89.1,6.9 M82.1,4
			c0.1,0.2,0.2,0.3,0.2,0.4c-3-0.6-6-0.5-9.1,0c0-0.3-0.1-0.7-0.3-0.9c0-0.1-0.2-0.2-0.4-0.5c2.4-0.8,4.6-1,6.8-0.8
			c0.4,0.1,0.8,0.2,1.2,0.3C81.2,3,81.7,3.4,82.1,4 M76.3,1.8C75,2,73.6,2.2,72.2,2.7c-0.5-0.3-1.2-0.5-2-0.6
			c0.6-0.1,1.2-0.2,1.9-0.3C73.5,1.7,74.9,1.7,76.3,1.8 M69.4,2.5c0.9,0,1.7,0.1,2.3,0.4c-2.3,0.9-4.4,2.2-6.3,3.9
			C66.5,4.9,67.8,3.4,69.4,2.5 M68.6,2.5c-1.5,1.2-2.8,2.7-3.8,4.6c0-1.7,0.2-2.9,0.7-3.6c0.6-0.3,1.3-0.5,2-0.7
			C67.8,2.8,68.2,2.6,68.6,2.5 M64.8,3.8c-0.3,0.9-0.5,2.1-0.5,3.6C63,6.6,61.9,6.1,61,6C62.2,5.2,63.5,4.5,64.8,3.8 M60.5,6.4
			c0.8-0.1,1.9,0.3,3.4,1.3c-2.4-0.1-4.4,0.2-6.1,1.1c0.1-0.2,0.3-0.3,0.4-0.5C59,7.6,59.7,7,60.5,6.4 M57.4,9.4
			c1.7-0.8,3.6-1.3,5.8-1.3c-2.5,0.8-4.6,1.9-6.4,3.4C56.7,11,56.9,10.3,57.4,9.4 M56.7,9.9c-0.4,0.8-0.5,1.5-0.5,1.9
			c-1,0.9-1.9,1.9-2.8,3C54.3,13.1,55.4,11.4,56.7,9.9 M52.3,17.6c0.9-1.9,2.2-3.7,4-5.3c0,0.1,0.1,0.3,0.2,0.5
			c0.2,0.3,0.5,0.6,0.7,0.7c-2.1,2.4-3.7,5-4.7,7.8L52.3,21c-0.3-0.6-0.4-1.3-0.4-2C52,18.5,52.2,18,52.3,17.6 M51.6,20.1
			c0.1,0.4,0.2,0.8,0.4,1c0.1,0.2,0.2,0.4,0.4,0.6c-0.8,2.1-1.1,4.3-1.1,6.4c0-0.2-0.1-0.5-0.1-0.7C50.9,24.9,51.1,22.5,51.6,20.1
			 M51.7,29.2c-0.1-2.3,0.3-4.7,1-7.2c0.8,0.7,1.9,1.2,3.2,1.5c-0.6,2.7-0.7,5.4-0.5,8C53.8,31.1,52.5,30.3,51.7,29.2 M51.7,29.9
			c0.8,0.9,2,1.6,3.8,2c0.3,2.5,1,5.1,2.2,7.6c-1.2-0.4-2.1-1-2.9-1.7c-1.1-1.7-2-3.5-2.6-5.5C52,31.5,51.8,30.7,51.7,29.9 M55.6,39
			c0.6,0.4,1.4,0.7,2.3,0.9c1,1.9,2.2,3.4,3.4,4.6C59.2,43,57.2,41.2,55.6,39 M62.9,45.3c-1.8-1.4-3.2-3.1-4.4-5.3
			c2.1,0.4,4.3,0.4,6.7,0c1.1,2.2,2.4,4.1,3.9,5.5C66.5,45.9,64.4,45.9,62.9,45.3 M63.8,46c1.3,0.2,2.8,0.3,4.5,0.1l1.1-0.1
			c1.3,1.1,2.6,1.9,4.1,2.5C70,48.4,66.7,47.5,63.8,46 M70,45.8c2.5-0.4,5.3-1.2,8.4-2.5c1.3,1.5,2.3,2.7,3.1,3.2
			c-2.4,1-4.7,1.5-6.8,1.8C73,48,71.4,47.2,70,45.8 M76.5,48.4c1.7-0.3,3.5-0.9,5.2-1.6c0.2,0.2,0.4,0.3,0.6,0.3
			c-1.8,0.6-3.6,1.1-5.6,1.3C76.7,48.4,76.6,48.4,76.5,48.4 M82.9,47c-0.2-0.1-0.4-0.2-0.7-0.3c2.4-1,4.5-2.3,6.5-3.7
			c0,0.3-0.1,0.6-0.1,0.8C86.8,45.1,84.9,46.2,82.9,47 M88.7,42.5c-2.1,1.5-4.4,2.8-6.9,3.9c-1-0.8-2.1-1.9-3.1-3.2
			c1.9-0.9,3.5-1.6,4.7-2.4c1.7-1,3.2-1.9,4.4-2.9C88.4,39.6,88.6,41.1,88.7,42.5 M94.6,31.2c-1.8,2.2-4,4.2-6.6,6.1
			c-0.6-1.9-1.5-3.9-2.9-6c2.7-2.1,5-4.2,6.7-6.3C93.2,27.2,94.1,29.2,94.6,31.2 M95.4,18.9c0.8,1.3,1.4,2.6,1.8,4
			c0.3,0.7,0.4,1.6,0.5,2.4c-0.4,1.7-1.4,3.6-2.9,5.5c-0.6-2.2-1.5-4.2-2.8-6.2C93.6,22.7,94.8,20.8,95.4,18.9 M89.7,12.9
			c2.3,1.7,4,3.5,5.4,5.6c-0.6,1.9-1.6,3.8-3.2,5.8c-1.5-2.1-3.2-4.2-5.4-6.2C88,16.4,89,14.7,89.7,12.9 M82.2,9
			c2.7,1,5.1,2.2,7.2,3.7c-0.6,1.7-1.7,3.4-3.2,5.2c-1.1-1.1-2.6-2.2-4.2-3.4c-0.8-0.6-1.6-1.1-2.4-1.6C80.8,11.5,81.6,10.2,82.2,9
			 M73.2,4.8c3.2-0.6,6.3-0.6,9.3,0c0.3,1,0.2,2.2-0.4,3.7c-3-1-6.1-1.6-9.5-1.7C72.9,6.1,73.1,5.4,73.2,4.8 M65.8,7
			c1.9-1.7,4-3,6.3-3.8c0.2,0.2,0.3,0.3,0.4,0.5c0.2,0.3,0.3,0.5,0.3,0.8C70.2,5.1,68,5.9,65.8,7 M65.7,7.8c0.7-0.1,1.9-0.3,3.5-0.4
			c0.6-0.1,1.5-0.1,2.7-0.1c-0.4,0.6-0.8,1.1-1.3,1.5C68.9,8.4,67.3,8,65.7,7.8 M65.4,8.2c1.5,0.2,3.1,0.5,4.8,0.9l-1.8,1.5
			C67.7,10,66.7,9.2,65.4,8.2 M64.8,8.2C65.9,9.1,67,10,68,10.9l-1.3,0.8c-0.6,0.3-1,0.6-1.3,0.7C65.1,10.7,64.9,9.3,64.8,8.2
			 M64.5,8.7c0,1,0.2,2.3,0.5,3.8c-0.4,0.2-1.1,0.4-2.1,0.7C63.3,11.5,63.9,10.1,64.5,8.7 M64,8.8c-0.7,1.5-1.2,3.1-1.5,4.6
			c-1.1,0.2-1.8,0.3-2.1,0.3c0.9-1.4,1.8-2.8,2.8-4.1L64,8.8z M63.5,8.8L63,9.5c-1.1,1.5-2.1,2.9-3,4.4c-0.8,0-1.5-0.1-2.1-0.4
			C59.5,11.7,61.4,10.1,63.5,8.8 M57.5,13.3c-0.2-0.1-0.4-0.4-0.6-0.7c-0.1-0.1-0.1-0.2-0.2-0.3V12c1.8-1.5,3.9-2.6,6.4-3.5
			C60.9,10,59,11.6,57.5,13.3 M56,23.1c-1.4-0.3-2.5-0.8-3.2-1.5c1-2.9,2.6-5.5,4.7-7.9c0.6,0.3,1.3,0.4,2.1,0.4
			C58.1,17.1,56.8,20,56,23.1 M55.9,31.6c-0.3-2.5-0.1-5.1,0.5-8c1.6,0.2,3.2,0.1,5.1-0.3c0.1,0.6,0.1,2.3,0.2,2.9
			c0.2,2.1,0.5,3.9,0.8,5.4C59.9,32,57.7,32,55.9,31.6 M65,39.7c-2.6,0.4-4.9,0.4-6.8-0.1c-1.2-2.6-2-5.1-2.3-7.6
			c1.9,0.4,4.1,0.3,6.6-0.1C63.1,34.7,63.9,37.3,65,39.7 M65.5,39.6c-1.1-2.3-2-4.9-2.6-7.8c2.4-0.4,4.9-1.2,7.4-2.2
			c1,2.1,2.2,4.5,3.9,7.4C71.3,38.2,68.5,39.1,65.5,39.6 M78.1,43c-2.9,1.2-5.8,2.1-8.5,2.5c-1.6-1.6-3-3.5-3.9-5.6
			c2.7-0.4,5.6-1.3,8.7-2.6C75.8,39.8,77.1,41.7,78.1,43 M87.7,37.5c-1.1,0.8-2.6,1.8-4.5,2.9c-1.3,0.7-2.9,1.6-4.7,2.4
			c-1.2-1.6-2.4-3.4-3.7-5.6c2-0.9,3.7-1.8,5.1-2.6c1.8-1.1,3.4-2.1,4.9-3.1C86.1,33.5,87,35.5,87.7,37.5 M86.2,18.5
			c2,1.9,3.8,3.9,5.3,6.2c-1.7,2.1-4,4.2-6.7,6.2l-4.5-7C82.9,22,84.9,20.2,86.2,18.5 M79.3,13.2c0.8,0.5,1.6,1,2.4,1.6
			c1.4,1,2.8,2.1,4.2,3.4c-1.5,1.8-3.4,3.6-5.8,5.4l-1.5-1.9c-2.3-2.8-3.6-4.3-3.8-4.5C76.4,16,77.9,14.7,79.3,13.2 M68.7,10.9
			c0.9-0.7,1.6-1.2,1.9-1.6c2.8,0.9,5.6,2.1,8.4,3.7c-1.1,1.3-2.6,2.5-4.4,3.9C72.7,14.7,70.7,12.7,68.7,10.9 M65.5,12.7l1.4-0.7
			c0.4-0.2,1-0.5,1.5-0.9c1.6,1.5,3.6,3.5,5.9,6c-1.2,0.9-2.3,1.5-3.2,2.1c-1.1,0.7-2.3,1.2-3.5,1.8C66.6,17.6,65.9,14.8,65.5,12.7
			 M61.5,22.9c-1.9,0.4-3.6,0.5-5.1,0.3c0.8-3.1,2-6,3.7-9c0.9-0.1,1.7-0.2,2.2-0.4C61.8,16.7,61.5,19.7,61.5,22.9 M62.8,13.7
			c0.8-0.2,1.6-0.5,2.3-0.8c0.4,2.2,1.1,4.9,2.1,8.2c-1.7,0.8-3.5,1.4-5.3,1.7C61.9,19.8,62.2,16.7,62.8,13.7 M70.2,29.2
			c-2.6,1.1-5.1,1.9-7.3,2.2c-0.4-1.5-0.6-3.3-0.8-5.3c-0.1-0.6-0.2-2.3-0.2-2.9c1.8-0.4,3.6-1,5.5-1.8c0.4,1.4,1.1,3.3,1.9,5.6
			L70.2,29.2z M75.5,27.1C77.4,26,79,25,80,24.2l4.5,7c-1.9,1.3-3.5,2.4-4.8,3.2c-1.7,1-3.4,1.8-5.2,2.5c-1.8-3.2-3.1-5.7-3.8-7.4
			C72.5,28.7,74.1,27.9,75.5,27.1 M70.6,29.1c-0.3-0.6-0.6-1.3-0.9-2.2c-0.8-2.1-1.5-3.9-2-5.6l3.6-1.8c1.7-1,2.8-1.8,3.3-2.1
			l3.8,4.6l1.5,1.9c-1.6,1.1-3.1,2.1-4.5,2.9C73.3,27.9,71.7,28.6,70.6,29.1 M72,6.9c-0.9,0-1.9,0-2.9,0.1c-1.4,0.1-2.5,0.2-3.2,0.4
			C68,6.3,70.3,5.5,72.8,5C72.7,5.5,72.4,6.1,72,6.9 M72.3,7.3c3.4,0,6.6,0.5,9.6,1.6c-0.6,1.3-1.5,2.6-2.6,3.8
			C76.6,11.1,73.8,9.8,71,9C71.4,8.4,71.9,7.8,72.3,7.3 M99.5,22.6C98.1,8.8,85.8-1.3,71.9,0.1C58.1,1.5,48.1,13.8,49.4,27.7
			C50.8,41.5,63.2,51.6,77,50.2C90.8,48.8,100.9,36.4,99.5,22.6"/>
	</g>
	<g>
		<defs>
			<rect id="SVGID_11_" width="149.9" height="61.7"/>
		</defs>
		<clipPath id="SVGID_12_">
			<use xlink:href="#SVGID_11_"  style="overflow:visible;"/>
		</clipPath>
		<path class="st5" d="M129.9,0.7H99.6c3.2,0,6.1,2.8,6.1,6.1v36.8c0,3.2-2.8,6.1-6.4,6.1h24.4v-43C123.7,3.5,126.7,0.7,129.9,0.7"
			/>
	</g>
	<g>
		<defs>
			<rect id="SVGID_13_" width="149.9" height="61.7"/>
		</defs>
		<clipPath id="SVGID_14_">
			<use xlink:href="#SVGID_13_"  style="overflow:visible;"/>
		</clipPath>
		<path class="st6" d="M140.5,4.4h-2.1V0.7h-1.2v4.7h3.3V4.4z M143.2,1.7h1.4v-1h-3.9v1h1.4v3.7h1.2L143.2,1.7L143.2,1.7z M148.7,3
			c0,0.8-0.6,1.4-1.4,1.4h-0.6V1.7h0.6C148.1,1.7,148.7,2.2,148.7,3 M149.9,3c0-1.4-1.2-2.3-2.6-2.3h-1.8v4.7h1.8
			C148.8,5.4,149.9,4.4,149.9,3"/>
	</g>
	<g>
		<defs>
			<rect id="SVGID_15_" width="149.9" height="61.7"/>
		</defs>
		<clipPath id="SVGID_16_">
			<use xlink:href="#SVGID_15_"  style="overflow:visible;"/>
		</clipPath>
		<path class="st7" d="M125.2,49.6h24.5v-24C149.7,39.9,139.6,49.6,125.2,49.6"/>
	</g>
</g>
</svg>
