<?xml version="1.0" encoding="utf-8"?>
<!-- Generator: Adobe Illustrator 20.1.0, SVG Export Plug-In . SVG Version: 6.00 Build 0)  -->
<svg version="1.1" id="Layer_1" xmlns="http://www.w3.org/2000/svg" xmlns:xlink="http://www.w3.org/1999/xlink" x="0px" y="0px"
	 viewBox="0 0 17 17.6" style="enable-background:new 0 0 17 17.6;" xml:space="preserve">
<style type="text/css">
	.st0{fill:#FFFFFF;}
</style>
<path class="st0" d="M6.8,0C3,0,0,3,0,6.8s3,6.8,6.8,6.8c1.4,0,2.8-0.5,3.9-1.2l5.1,5.1c0,0,0.1,0,0.2,0l1-1c0,0,0-0.1,0-0.2
	l-5.1-5.1c1.1-1.2,1.7-2.8,1.7-4.5C13.6,3,10.6,0,6.8,0L6.8,0z M6.8,12.8c-3.3,0-6-2.7-6-6s2.7-6,6-6s6,2.7,6,6S10.1,12.8,6.8,12.8
	L6.8,12.8z"/>
</svg>
