<?xml version="1.0" encoding="utf-8"?>
<!-- Generator: Adobe Illustrator 20.1.0, SVG Export Plug-In . SVG Version: 6.00 Build 0)  -->
<svg version="1.1" id="Layer_1" xmlns="http://www.w3.org/2000/svg" xmlns:xlink="http://www.w3.org/1999/xlink" x="0px" y="0px"
	 viewBox="0 0 229.4 372" style="enable-background:new 0 0 229.4 372;" xml:space="preserve">
<style type="text/css">
	.st0{fill:#FFFFFF;}
</style>
<g>
	<path class="st0" d="M206.1,35.7C185.9,12,155.2,0,114.7,0C74.3,0,43.5,12,23.3,35.7C3,59.5,0,87.4,0,101.9V270
		c0,14.5,3,42.4,23.3,66.2c20.2,23.8,51,35.8,91.4,35.8s71.2-12,91.4-35.7c20.3-23.8,23.3-51.7,23.3-66.2V101.9
		C229.4,87.4,226.4,59.5,206.1,35.7L206.1,35.7z M114.7,129.6c-8.4,0-15.2-6.8-15.2-15.2V81.8c0-8.4,6.8-15.2,15.2-15.2
		s15.2,6.8,15.2,15.2v32.6C129.9,122.8,123.1,129.6,114.7,129.6L114.7,129.6z M217.4,270.1c0,15-5,89.9-102.7,89.9
		S12,285.1,12,270.1V101.9c0-14.7,4.8-86.8,96.7-89.8v43.2C96.6,58,87.5,68.9,87.5,81.8v32.6c0,12.9,9.1,23.8,21.2,26.5v49.3
		c0,3.3,2.7,6,6,6s6-2.7,6-6v-49.3c12.1-2.7,21.2-13.6,21.2-26.5V81.8c0-12.9-9.1-23.8-21.2-26.5V12.1c92,3,96.7,75.1,96.7,89.8
		V270.1z"/>
</g>
</svg>
