<?xml version="1.0" encoding="utf-8"?>
<!-- Generator: Adobe Illustrator 19.0.1, SVG Export Plug-In . SVG Version: 6.00 Build 0)  -->
<svg version="1.1" id="Capa_1" xmlns="http://www.w3.org/2000/svg" xmlns:xlink="http://www.w3.org/1999/xlink" x="0px" y="0px"
	 viewBox="-57 180.9 480 480" style="enable-background:new -57 180.9 480 480;" xml:space="preserve">
<style type="text/css">
	.st0{fill:#2E646D;}
</style>
<g>
	<g>
		<path class="st0" d="M321.5,395.6l-21.1-24c-5.8-6.6-15.9-7.3-22.6-1.5L215,425.2V196.9c0-8.8-7.2-16-16-16h-32
			c-8.8,0-16,7.2-16,16v228.3l-62.9-55.1c-6.6-5.8-16.7-5.2-22.6,1.5l-21.1,24c-5.9,6.7-5.2,16.8,1.5,22.6l126.5,110.8
			c6,5.3,15,5.3,21.1,0l126.5-110.8C326.7,412.3,327.4,402.2,321.5,395.6z"/>
	</g>
</g>
<g>
	<g>
		<path class="st0" d="M359,596.9H7c-8.8,0-16,7.2-16,16v32c0,8.8,7.2,16,16,16h352c8.8,0,16-7.2,16-16v-32
			C375,604.1,367.8,596.9,359,596.9z"/>
	</g>
</g>
</svg>
