<?xml version="1.0" encoding="utf-8"?>
<!-- Generator: Adobe Illustrator 19.0.1, SVG Export Plug-In . SVG Version: 6.00 Build 0)  -->
<svg version="1.1" id="Capa_1" xmlns="http://www.w3.org/2000/svg" xmlns:xlink="http://www.w3.org/1999/xlink" x="0px" y="0px"
	 viewBox="-281 405.9 31 31" style="enable-background:new -281 405.9 31 31;" xml:space="preserve">
<g>
	<g>
		<path d="M-255.9,427.4c-0.1,0-0.2,0-0.3-0.1l-5.8-5.4c-0.2-0.2-0.2-0.5,0-0.7c0.2-0.2,0.5-0.2,0.7,0l5.8,5.4
			c0.2,0.2,0.2,0.5,0,0.7C-255.6,427.3-255.8,427.4-255.9,427.4z"/>
		<path d="M-275.1,427.4c-0.1,0-0.3-0.1-0.4-0.2c-0.2-0.2-0.2-0.5,0-0.7l5.8-5.4c0.2-0.2,0.5-0.2,0.7,0c0.2,0.2,0.2,0.5,0,0.7
			l-5.8,5.4C-274.9,427.3-275,427.4-275.1,427.4z"/>
	</g>
	<path d="M-252.5,432.4h-26c-1.4,0-2.5-1.1-2.5-2.5v-17c0-1.4,1.1-2.5,2.5-2.5h26c1.4,0,2.5,1.1,2.5,2.5v17
		C-250,431.3-251.1,432.4-252.5,432.4z M-278.5,411.4c-0.8,0-1.5,0.7-1.5,1.5v17c0,0.8,0.7,1.5,1.5,1.5h26c0.8,0,1.5-0.7,1.5-1.5
		v-17c0-0.8-0.7-1.5-1.5-1.5H-278.5z"/>
	<path d="M-265.5,423.9c-0.7,0-1.3-0.2-1.8-0.7l-12.8-11.2c-0.2-0.2-0.2-0.5,0-0.7c0.2-0.2,0.5-0.2,0.7,0l12.8,11.2
		c0.6,0.6,1.7,0.6,2.4,0l12.8-11.2c0.2-0.2,0.5-0.2,0.7,0c0.2,0.2,0.2,0.5,0,0.7l-12.8,11.2C-264.2,423.7-264.8,423.9-265.5,423.9z"
		/>
</g>
</svg>
