<?xml version="1.0" encoding="utf-8"?>
<!-- Generator: Adobe Illustrator 19.0.1, SVG Export Plug-In . SVG Version: 6.00 Build 0)  -->
<svg version="1.1" id="Слой_1" xmlns="http://www.w3.org/2000/svg" xmlns:xlink="http://www.w3.org/1999/xlink" x="0px" y="0px"
	 viewBox="-66 345.8 480 480" style="enable-background:new -66 345.8 480 480;" xml:space="preserve">
<style type="text/css">
	.st0{fill:#88B433;}
</style>
<g>
	<g>
		<g>
			<path class="st0" d="M269.2,581.2l-135.1-92.4c-0.8-0.6-3.4-1.2-5.5-0.3c-0.6,0.3-2.5,1.1-2.8,5.1V678c0.3,2.8,1.3,4.5,3.2,5.2
				c2,0.8,4.3,0.3,4.9-0.2l0.4-0.3l135.2-92.5l0.1-0.1c0.6-0.3,2-2.1,2.2-4.2C271.9,584.2,271,582.7,269.2,581.2z M136.7,668V503.6
				l120,82.2L136.7,668z"/>
		</g>
		<g>
			<path class="st0" d="M174,345.8c-132.3,0-240,107.7-240,240s107.7,240,240,240s240-107.7,240-240S306.3,345.8,174,345.8z
				 M174,814.9c-126.3,0-229.1-102.8-229.1-229.1S47.7,356.7,174,356.7s229.1,102.8,229.1,229.1S300.3,814.9,174,814.9z"/>
		</g>
	</g>
</g>
</svg>
