<?xml version="1.0" encoding="utf-8"?>
<!-- Generator: Adobe Illustrator 19.0.1, SVG Export Plug-In . SVG Version: 6.00 Build 0)  -->
<svg version="1.1" id="Layer_1" xmlns="http://www.w3.org/2000/svg" xmlns:xlink="http://www.w3.org/1999/xlink" x="0px" y="0px"
	 viewBox="-140 263.9 315 315" style="enable-background:new -140 263.9 315 315;" xml:space="preserve">
<style type="text/css">
	.st0{fill:#999999;}
</style>
<g id="XMLID_510_">
	<path id="XMLID_511_" class="st0" d="M167.5,400.8h-19.8V381c0-4.1-3.4-7.5-7.5-7.5h-26.7c-4.1,0-7.5,3.4-7.5,7.5v19.8H86.2
		c-4.1,0-7.5,3.4-7.5,7.5V435c0,4.1,3.4,7.5,7.5,7.5H106v19.8c0,4.1,3.4,7.5,7.5,7.5h26.7c4.1,0,7.5-3.4,7.5-7.5v-19.8h19.8
		c4.1,0,7.5-3.4,7.5-7.5v-26.7C175,404.1,171.6,400.8,167.5,400.8z"/>
	<path id="XMLID_512_" class="st0" d="M-38.1,368.1c9.1,0,17.8,2.4,25.3,7.1l8.5,5.8c3,2,7,1.7,9.5-0.9L30,355.5
		c1.6-1.6,2.4-3.8,2.2-6c-0.2-2.2-1.4-4.2-3.2-5.5l-14.4-9.9c-0.3-0.2-0.6-0.4-0.9-0.5l-14-6.9c-0.2-0.1-0.4-0.2-0.6-0.3
		c-12-4.8-24.7-7.2-37.7-7.2c-26.8,0-52,10.3-71.1,28.9c-19.4,18.9-30.1,44.7-30.3,72.5c-0.2,27.8,10.2,53.7,29.4,72.9
		c19,19,45.9,30,73.8,30c27.7,0,53.6-10.7,71.2-29.5c13.9-14.8,22.5-34.6,24.7-57.3c0-0.2,0-0.4,0-0.6l0.3-20.3c0-0.4,0-0.8-0.1-1.3
		l-1.1-7c-0.6-3.6-3.7-6.3-7.4-6.3h-86.7c-4.1,0-7.5,3.4-7.5,7.5v30c0,4.1,3.4,7.5,7.5,7.5H8.3c-2,4.4-5.2,9.1-9.3,13.5
		c-8.8,9.5-21.9,15-36,15c-14.4,0-28.2-5.6-37.8-15.5c-20.1-20.4-19.8-56.1,0.5-76.2C-64.7,373.5-51.5,368.1-38.1,368.1z"/>
</g>
</svg>
